<?xml version="1.0" encoding="UTF-8"?>
<svg id="Layer_2" data-name="Layer 2" xmlns="http://www.w3.org/2000/svg" viewBox="0 0 33.9 34.38">
  <defs>
    <style>
      .cls-1 {
        fill-rule: evenodd;
      }

      .cls-1, .cls-2 {
        fill: #231f20;
      }
    </style>
  </defs>
  <g id="Layer_1-2" data-name="Layer 1">
    <g>
      <path class="cls-1" d="M13.4,1.78L11.8.08C14.5-.22,21.6.08,28.4,4.78v1.3l.5.3h0c.3.5.6,1.2.8,2.1.2,1,.3,2.2,0,3.4-.3,1.2-.8,2.1-1.2,2.8-.4.5-.7.9-.9,1.1-.9,0-2.5.6-3,2.7-1.4.8-3.6,1.6-6.5,1.6s-5.6-.8-7.7-2.4-3.5-3.9-3.5-6.9,1.1-4.3,2.4-5.7c1.4-1.4,3.2-2.5,4.3-2.9l-.3-.2.1-.2ZM25.5,5.78c-.5.6-1,.9-1.2,1-3.1-.7-4.3-2.4-4.3-2.4,3,0,5.7.7,7.6,2,0,0-1.1-.4-2.1-.5v-.1Z"/>
      <path class="cls-2" d="M11.9,2.28C5.1,3.68,0,9.78,0,17.18s7.8,17.2,17.5,17.2,13.2-4.5,16.4-10.5c-4.2,1-9.2-.8-9.2-4.7-1.5.8-3.7,1.5-6.4,1.5s-5.9-.8-8.1-2.5c-2.3-1.7-3.8-4.2-3.8-7.5s1.2-4.7,2.6-6.2c.8-.9,2-1.7,3-2.2h-.1Z"/>
      <path class="cls-2" d="M30.5,8.28c0-.4-.2-.8-.3-1.2,1.8,1.4,3.2,3.2,3.1,5.9-.2,3.8-2.4,5.2-3.9,5.5.7-1.2.1-1.9-.1-2.2-.1-.1-.3-.3-.7-.4.2-.2.4-.5.6-.8.5-.8,1.1-1.8,1.3-3.1.3-1.3.2-2.6,0-3.7Z"/>
    </g>
  </g>
</svg>
