<?xml version="1.0" encoding="UTF-8"?>
<svg id="Layer_2" data-name="Layer 2" xmlns="http://www.w3.org/2000/svg" viewBox="0 0 21.97 23.91">
  <defs>
    <style>
      .cls-1 {
        fill-rule: evenodd;
      }
    </style>
  </defs>
  <g id="Layer_1-2" data-name="Layer 1">
    <path class="cls-1" d="M12.77,0v2.85c5.19.68,9.21,5.11,9.21,10.49,0,5.84-4.74,10.58-10.59,10.58-1.92,0-3.72-.51-5.28-1.41l2.05-2.05c1,.45,2.1.69,3.23.69,2.09,0,4.06-.81,5.53-2.29,1.48-1.48,2.29-3.44,2.29-5.53s-.81-4.05-2.29-5.53c-1.15-1.15-2.59-1.89-4.15-2.17v2.64h-2.76V0h2.76ZM5.84,14.98l1.95,1.95-5.84,5.83-1.95-1.95,2.21-2.21c-.89-1.55-1.4-3.35-1.4-5.27C.8,8.96,3.46,5.21,7.25,3.6v3.1c-.5.31-.96.68-1.39,1.11-1.48,1.48-2.29,3.44-2.29,5.53,0,1.13.24,2.22.69,3.22l1.58-1.58Z"/>
  </g>
</svg>
