<svg version="1.1" id="Layer_1" xmlns="http://www.w3.org/2000/svg" xmlns:xlink="http://www.w3.org/1999/xlink" x="0px" y="0px"
	 width="100%" viewBox="0 0 1201 1201" enable-background="new 0 0 1201 1201" xml:space="preserve">
<path fill="#231F20" opacity="1.000000" stroke="none" 
	d="
M577.000000,1202.000000 
	C384.666656,1202.000000 192.833328,1202.000000 1.000000,1202.000000 
	C1.000000,801.666687 1.000000,401.333344 1.000000,1.000000 
	C401.333344,1.000000 801.666687,1.000000 1202.000000,1.000000 
	C1202.000000,401.333344 1202.000000,801.666687 1202.000000,1202.000000 
	C993.833313,1202.000000 785.666687,1202.000000 577.000000,1202.000000 
M608.499268,367.997711 
	C585.750671,367.997711 563.002136,367.997711 540.294739,367.997711 
	C520.092957,479.989624 500.021484,591.259033 479.913879,702.728760 
	C498.403259,702.728760 516.496094,702.728760 534.675903,702.728760 
	C538.117920,682.373291 541.517639,662.268005 544.893799,642.302002 
	C569.399780,642.302002 593.321167,642.302002 617.463989,642.302002 
	C620.910034,662.656799 624.313538,682.760620 627.695496,702.737061 
	C648.053589,702.737061 667.827698,702.737061 687.833496,702.737061 
	C683.027832,676.092651 678.278687,649.744934 673.523254,623.398499 
	C664.364014,572.653931 655.200195,521.910217 646.039978,471.165802 
	C640.041321,437.935425 634.000305,404.712463 628.131165,371.459167 
	C627.640442,368.678802 626.657959,367.856079 623.992859,367.949951 
	C619.166931,368.119934 614.330750,367.997833 608.499268,367.997711 
M729.507935,703.000427 
	C744.593750,703.000427 759.679504,703.000427 775.239136,703.000427 
	C775.239136,660.617126 775.239136,618.902954 775.239136,577.000427 
	C785.373169,577.000427 795.033752,577.264893 804.672546,576.919067 
	C812.802002,576.627380 821.018494,576.255859 829.001221,574.827881 
	C857.994080,569.641724 879.034790,554.620972 887.285156,525.130920 
	C889.285278,517.981934 890.808594,510.431366 890.857605,503.054199 
	C891.014648,479.426056 891.874023,455.651947 889.668579,432.196838 
	C886.899414,402.746124 870.445496,382.154114 841.628967,373.478363 
	C830.781433,370.212494 819.122009,368.517975 807.780273,368.239075 
	C778.644165,367.522552 749.478821,367.995941 720.325134,368.010590 
	C718.889709,368.011322 717.454346,368.172333 716.201965,368.247681 
	C716.201965,480.049469 716.201965,591.400146 716.201965,703.000427 
	C720.548950,703.000427 724.529968,703.000427 729.507935,703.000427 
M425.500000,367.999817 
	C386.355286,367.999817 347.210571,367.999817 307.780823,367.999817 
	C307.780823,384.085876 307.780823,399.839996 307.780823,416.216064 
	C328.556885,416.216064 349.097534,416.216064 370.007935,416.216064 
	C370.007935,512.091003 370.007935,607.345032 370.007935,702.738281 
	C389.799805,702.738281 409.204407,702.738281 429.104919,702.738281 
	C429.104919,607.089355 429.104919,511.700958 429.104919,415.859711 
	C450.011353,415.859711 470.425385,415.859711 490.802490,415.859711 
	C490.802490,399.685577 490.802490,383.969208 490.802490,367.999817 
	C469.125702,367.999817 447.812866,367.999817 425.500000,367.999817 
M947.979980,872.495850 
	C947.979980,877.615356 947.979980,882.734863 947.979980,888.197998 
	C949.657532,888.013062 950.845337,887.882141 952.529541,887.696472 
	C952.529541,868.518372 952.529541,849.693298 952.529541,830.868225 
	C954.049744,832.401855 954.596741,834.059448 955.009399,835.750000 
	C958.911804,851.735046 962.937866,867.692566 966.571472,883.738892 
	C967.447693,887.608337 968.920471,888.882812 972.870544,887.541199 
	C977.340820,868.759583 981.846924,849.827515 986.353027,830.895447 
	C986.813965,830.957825 987.274841,831.020203 987.735779,831.082581 
	C987.735779,849.956665 987.735779,868.830750 987.735779,888.026855 
	C989.752686,887.905823 991.153015,887.821777 992.573853,887.736511 
	C992.573853,863.318909 992.573853,839.260803 992.573853,815.122559 
	C990.031921,815.122559 987.783813,815.122559 985.451721,815.122559 
	C980.529846,835.791626 975.673889,856.183716 970.817993,876.575745 
	C970.493958,876.570862 970.169983,876.565918 969.846008,876.561035 
	C964.882263,855.972046 959.918518,835.383118 955.046875,815.176147 
	C952.287292,815.176147 950.213135,815.176147 947.979980,815.176147 
	C947.979980,834.195557 947.979980,852.846375 947.979980,872.495850 
M693.036377,853.500000 
	C693.036377,840.715149 693.036377,827.930237 693.036377,815.359802 
	C688.877502,814.096313 688.357910,815.998474 688.377136,819.080383 
	C688.475647,834.899414 688.422058,850.719360 688.421692,866.539001 
	C688.421631,868.244324 688.421753,869.949646 688.421753,871.654968 
	C686.802368,870.697083 686.287781,869.572876 685.868530,868.414185 
	C680.046753,852.324829 674.084961,836.283325 668.526550,820.103333 
	C667.007385,815.681335 664.981873,813.753906 660.183167,815.456116 
	C660.183167,839.461548 660.183167,863.542236 660.183167,888.036865 
	C661.723633,887.884949 663.046143,887.754456 664.831909,887.578308 
	C664.831909,867.324219 664.831909,847.506287 664.831909,827.688293 
	C665.166870,827.631897 665.501831,827.575562 665.836792,827.519165 
	C672.997864,847.609436 680.158875,867.699707 687.296570,887.724487 
	C689.310730,887.724487 691.040649,887.724487 693.036377,887.724487 
	C693.036377,876.445312 693.036377,865.472656 693.036377,853.500000 
M567.963623,854.500000 
	C567.963623,865.619812 567.963623,876.739685 567.963623,887.642212 
	C572.128845,888.903809 572.639587,886.994202 572.622681,883.915405 
	C572.528137,866.764038 572.570435,849.612000 572.590271,832.460144 
	C572.592163,830.845215 572.762695,829.230408 572.854919,827.615540 
	C574.502075,829.495300 575.234131,831.320007 575.893005,833.170776 
	C581.908997,850.071838 588.043213,866.932861 593.820129,883.915405 
	C595.138916,887.792236 597.016602,888.851562 600.833069,887.590027 
	C600.833069,863.533325 600.833069,839.446411 600.833069,814.943604 
	C599.263794,815.109436 597.941101,815.249207 596.056519,815.448303 
	C596.056519,834.465576 596.056519,853.057068 596.056519,871.648499 
	C594.786560,870.705200 594.323730,869.687500 593.944275,868.639587 
	C588.062378,852.395508 582.014954,836.207825 576.430054,819.862122 
	C574.847778,815.231201 572.655090,813.823120 567.963623,815.630615 
	C567.963623,828.229980 567.963623,840.864990 567.963623,854.500000 
M804.513306,855.682312 
	C803.368774,854.845276 802.224243,854.008179 802.203918,853.993347 
	C804.594788,849.573059 807.645020,845.756409 808.714539,841.448120 
	C809.804016,837.059753 809.247070,832.162781 808.868896,827.532837 
	C808.278198,820.301270 803.848877,815.624573 796.822205,815.123596 
	C790.710388,814.687805 784.542847,815.032959 778.290405,815.032959 
	C778.290405,839.391479 778.290405,863.604797 778.290405,888.098389 
	C780.017944,887.944885 781.413330,887.820923 783.143494,887.667236 
	C783.143494,876.887512 783.143494,866.450806 783.143494,855.544128 
	C786.130920,855.544128 788.754761,855.486145 791.375366,855.554626 
	C800.489380,855.792725 803.943787,859.266602 804.122925,868.414795 
	C804.220703,873.406616 804.074646,878.406311 804.288208,883.391724 
	C804.453491,887.249634 806.235596,889.218262 809.189392,887.999756 
	C809.189392,880.961975 809.677856,874.487610 809.013367,868.133911 
	C808.588135,864.067932 806.460083,860.180115 804.513306,855.682312 
M907.974670,865.477051 
	C907.980896,868.142456 907.868347,870.814331 908.014709,873.472046 
	C908.552856,883.242310 914.518433,889.114929 923.851990,889.174500 
	C933.220581,889.234375 939.673401,883.455505 939.902649,873.750671 
	C940.252808,858.932739 940.231201,844.095276 939.908875,829.276062 
	C939.708618,820.067871 933.940491,814.422546 925.372498,813.930969 
	C914.737549,813.320923 908.156921,819.472900 908.010254,830.500000 
	C907.859558,841.826233 907.975464,853.155945 907.974670,865.477051 
M817.974670,836.536011 
	C817.976501,848.697754 817.816650,860.862366 818.030884,873.020325 
	C818.205078,882.904358 824.159302,888.919922 833.402466,889.149963 
	C842.898376,889.386292 849.559143,883.866943 849.849365,874.198303 
	C850.303894,859.052429 850.304199,843.872375 849.840271,828.726929 
	C849.550415,819.264099 843.054077,813.781982 833.825684,813.822021 
	C824.710754,813.861572 818.771973,819.552246 818.036560,829.057434 
	C817.869934,831.211060 817.987793,833.386780 817.974670,836.536011 
M505.377136,889.174622 
	C515.465759,888.336426 520.852539,882.880249 520.977417,872.766296 
	C521.152039,858.629639 521.141968,844.487854 520.982117,830.350830 
	C520.865723,820.056641 514.683411,813.853027 504.995605,813.822815 
	C495.352142,813.792725 489.135864,820.031128 489.018219,830.344299 
	C488.856934,844.481262 488.847534,858.623108 489.022430,872.759766 
	C489.148346,882.936096 494.478180,888.343323 505.377136,889.174622 
M723.090149,887.783691 
	C725.548645,884.787170 729.660706,882.037415 730.151611,878.747375 
	C731.551270,869.366760 731.476929,859.766174 731.986755,850.172852 
	C726.274109,850.172852 721.813904,850.172852 716.939453,850.172852 
	C717.112488,851.747681 717.257446,853.067322 717.446960,854.791992 
	C720.815186,854.791992 723.730408,854.791992 727.320984,854.791992 
	C726.917725,862.219788 726.982605,869.224121 726.025940,876.086060 
	C725.240234,881.722351 721.272644,884.400879 715.834961,884.397888 
	C710.592224,884.395081 706.070007,881.860535 705.886292,876.507568 
	C705.311401,859.757568 705.340332,842.958923 705.982117,826.211609 
	C706.184204,820.938477 710.777771,818.508789 716.098755,818.604004 
	C721.364563,818.698242 724.812866,821.271362 726.038025,826.651978 
	C726.731689,829.697998 726.677673,832.912598 726.990906,836.048218 
	C727.053772,836.677490 727.255310,837.292847 727.437378,838.115540 
	C728.841553,837.949646 730.073914,837.804016 731.754517,837.605408 
	C731.483032,833.441467 731.565918,829.588379 730.917297,825.862610 
	C729.677246,818.739441 724.577698,814.413696 717.523010,813.945618 
	C706.765381,813.231812 700.151428,819.221863 700.014343,830.247070 
	C699.842407,844.075928 699.903992,857.908875 699.988953,871.739258 
	C700.073059,885.428650 709.033020,891.899536 723.090149,887.783691 
M375.444336,834.760681 
	C371.613251,852.376221 367.782166,869.991760 363.967834,887.530212 
	C367.718719,888.838562 368.887054,887.453796 369.426392,884.352112 
	C370.150269,880.188965 371.384033,876.114502 372.342560,872.230225 
	C380.072510,872.230225 387.200012,872.230225 394.565399,872.230225 
	C395.823639,877.472900 397.049347,882.579956 398.297516,887.780640 
	C399.908600,887.780640 401.330292,887.780640 403.365692,887.780640 
	C397.916077,863.344543 392.545197,839.261475 387.193146,815.262817 
	C384.503601,815.262817 382.247803,815.262817 379.742493,815.262817 
	C378.360016,821.638672 377.024597,827.797668 375.444336,834.760681 
M329.017120,822.583496 
	C329.017120,820.129822 329.017120,817.676147 329.017120,814.852966 
	C327.070953,815.079224 325.698212,815.238831 324.392029,815.390686 
	C324.392029,839.737366 324.392029,863.650635 324.392029,887.692200 
	C326.019135,887.692200 327.380676,887.692200 329.283813,887.692200 
	C329.283813,876.179382 329.283813,864.972473 329.283813,853.851074 
	C337.082184,853.851074 344.331055,853.851074 352.095184,853.851074 
	C352.095184,865.387390 352.095184,876.623108 352.095184,888.137329 
	C354.039185,887.947266 355.434998,887.810791 356.683899,887.688721 
	C356.683899,863.235596 356.683899,839.179932 356.683899,814.862366 
	C354.928864,815.050903 353.532837,815.200806 351.852539,815.381287 
	C351.852539,826.670288 351.852539,837.599548 351.852539,848.704224 
	C344.140839,848.704224 336.759613,848.704224 329.017120,848.704224 
	C329.017120,840.139954 329.017120,831.850647 329.017120,822.583496 
M554.427612,839.499817 
	C554.326538,850.660583 554.450745,861.829590 554.046204,872.979370 
	C553.770142,880.587402 549.878662,884.428345 543.567017,884.404114 
	C537.319458,884.380127 533.327637,880.315125 533.096130,872.888489 
	C532.784851,862.898621 532.914001,852.894592 532.887085,842.896545 
	C532.862427,833.765442 532.881836,824.634155 532.881836,815.246399 
	C531.057068,815.246399 529.686890,815.246399 528.037354,815.246399 
	C528.037354,835.148376 527.764832,854.791870 528.157654,874.422058 
	C528.341187,883.599915 534.525940,889.040283 543.174622,889.157166 
	C552.912720,889.288635 558.917297,883.213257 558.991516,872.622620 
	C559.122314,853.958557 559.015747,835.292725 558.988342,816.627686 
	C558.987671,816.156677 558.751587,815.686035 558.566040,814.994141 
	C557.294922,815.087769 556.051208,815.179382 554.427795,815.298950 
	C554.427795,823.211121 554.427795,830.855469 554.427612,839.499817 
M303.072479,884.168701 
	C295.797119,884.590637 291.262665,882.745239 291.010406,876.787537 
	C290.295227,859.896179 290.467773,842.942993 291.011719,826.037354 
	C291.173798,821.000366 295.740845,818.701904 300.793610,818.612854 
	C306.009918,818.520874 309.803253,821.189941 310.958282,826.375427 
	C311.744659,829.905884 311.665558,833.628174 311.995026,837.262695 
	C312.038147,837.738525 312.209595,838.202759 312.343353,838.763428 
	C313.649933,838.763428 314.887939,838.763428 316.290649,838.763428 
	C316.290649,835.045776 316.621948,831.540894 316.227417,828.119751 
	C315.125732,818.566528 309.524384,813.691162 300.299683,813.853027 
	C291.561768,814.006348 285.497284,819.226501 285.190247,828.497070 
	C284.683289,843.803528 284.732635,859.147766 285.165527,874.458679 
	C285.423920,883.598389 291.524780,888.969604 300.229675,889.140930 
	C309.553894,889.324280 315.171478,884.521545 316.204559,874.966064 
	C316.646545,870.878113 316.278503,866.702576 316.278503,862.335938 
	C314.829865,862.335938 313.505066,862.335938 311.779633,862.335938 
	C311.779633,866.167725 312.046631,869.677063 311.716309,873.129211 
	C311.234924,878.160156 309.576172,882.609131 303.072479,884.168701 
M436.988647,876.940491 
	C435.819763,880.714661 433.558319,883.308289 429.502777,884.108093 
	C421.802673,885.626648 416.295258,881.369568 416.105133,872.827881 
	C415.790192,858.678772 416.007385,844.517517 416.039795,830.361450 
	C416.042419,829.212219 416.240601,828.035828 416.530243,826.919434 
	C417.963837,821.393677 421.480377,818.590027 426.859436,818.597534 
	C432.288971,818.605103 435.923645,821.319031 437.091339,826.924438 
	C437.796326,830.308472 437.708099,833.856567 438.003052,837.328613 
	C438.043274,837.801880 438.239471,838.262024 438.425629,838.961914 
	C439.698975,838.889343 440.935364,838.818909 442.281158,838.742249 
	C442.281158,834.983948 442.617493,831.475952 442.216888,828.054260 
	C441.099365,818.509216 435.493195,813.673523 426.233337,813.858826 
	C417.512329,814.033447 411.474915,819.290405 411.179962,828.563293 
	C410.693085,843.871094 410.724274,859.215210 411.174988,874.525330 
	C411.443665,883.652649 417.580872,888.996643 426.296722,889.146729 
	C435.583282,889.306641 441.195038,884.464417 442.215302,874.899475 
	C442.651276,870.812195 442.288147,866.639648 442.288147,862.363525 
	C440.792419,862.363525 439.468201,862.363525 438.363556,862.363525 
	C437.941437,867.216370 437.553802,871.672485 436.988647,876.940491 
M458.124634,821.649841 
	C466.660889,815.407471 475.217590,818.888794 476.677948,829.292908 
	C477.046143,831.916016 476.883331,834.612305 476.999756,837.273438 
	C477.020447,837.746582 477.214478,838.212219 477.347198,838.758484 
	C478.661285,838.758484 479.895630,838.758484 481.288910,838.758484 
	C481.288910,835.035034 481.617462,831.530029 481.225525,828.107605 
	C480.172852,818.916077 474.888184,814.028809 466.282776,813.852905 
	C457.241211,813.668213 450.816040,818.269165 450.391418,827.529419 
	C449.652435,843.644897 449.671906,859.846863 450.455719,875.959961 
	C450.886902,884.824829 457.402527,889.319214 466.252686,889.148071 
	C474.766754,888.983459 480.126709,884.268921 481.128357,875.431641 
	C481.609528,871.186340 481.211243,866.841370 481.211243,862.347900 
	C479.813538,862.347900 478.488098,862.347900 477.419250,862.347900 
	C476.944122,867.349182 476.901825,872.047424 475.965332,876.560181 
	C474.829803,882.032166 470.890808,884.606873 465.391327,884.391113 
	C459.254761,884.150269 455.259521,880.279907 455.121643,873.192322 
	C454.839905,858.707458 454.921509,844.210999 455.164520,829.724609 
	C455.206268,827.235840 456.786530,824.772827 458.124634,821.649841 
M868.971924,839.509949 
	C868.972595,850.497925 868.877930,861.486938 869.001892,872.473511 
	C869.116455,882.621033 874.666260,888.757629 883.727173,889.098938 
	C893.858337,889.480591 899.587769,884.190979 900.456909,873.505737 
	C900.672241,870.858398 900.426819,868.176025 900.584473,865.521118 
	C900.802368,861.854309 899.160645,861.314087 896.406494,862.435486 
	C895.949158,867.294250 895.917725,871.989807 894.979248,876.496460 
	C893.798401,882.166748 889.691040,884.770691 883.967896,884.353943 
	C877.907166,883.912598 874.217957,880.028137 874.090454,872.778931 
	C873.841553,858.634766 874.007263,844.483093 874.041260,830.334595 
	C874.044067,829.186340 874.246887,828.011047 874.538208,826.895691 
	C875.981018,821.371399 879.491943,818.582764 884.876709,818.597778 
	C890.300171,818.612915 893.928650,821.329285 895.093994,826.933594 
	C895.797363,830.316162 895.708984,833.862244 896.003418,837.332520 
	C896.043518,837.805420 896.240967,838.265076 896.427795,838.963562 
	C897.700439,838.890259 898.936401,838.819031 901.060242,838.696594 
	C900.434570,833.471436 900.404358,828.434570 899.132996,823.733337 
	C897.263855,816.820862 891.980957,813.707520 884.250854,813.857239 
	C876.968994,813.998230 871.704102,817.437805 870.164673,824.182190 
	C869.108398,828.809753 869.324524,833.727661 868.971924,839.509949 
M743.510010,888.004028 
	C744.015991,886.488586 744.933777,884.980164 744.959656,883.456543 
	C745.102661,875.043396 745.028076,866.626587 745.028076,858.011780 
	C749.395264,858.011780 753.052734,858.148743 756.696716,857.984192 
	C765.077148,857.605957 770.431274,852.544739 770.931641,844.227966 
	C771.240967,839.086121 771.242493,833.892334 770.905640,828.753052 
	C770.421509,821.367920 766.281860,816.023926 759.742798,815.338074 
	C753.369751,814.669617 746.871643,815.192871 740.131348,815.192871 
	C740.131348,838.693176 740.103394,861.990295 740.235168,885.286438 
	C740.240356,886.201843 741.770874,887.108521 743.510010,888.004028 
M254.036514,824.592712 
	C254.036514,823.009155 254.036514,821.425659 254.036514,819.491638 
	C262.407654,819.491638 270.031860,819.491638 277.851044,819.491638 
	C277.851044,817.775085 277.851044,816.417847 277.851044,815.196594 
	C268.118774,815.196594 258.731750,815.196594 249.437256,815.196594 
	C249.437256,839.680725 249.437256,863.750488 249.437256,887.869080 
	C259.162384,887.869080 268.561310,887.869080 277.804962,887.869080 
	C278.884308,884.487549 277.874481,883.288696 274.609406,883.371521 
	C267.863800,883.542786 261.110748,883.423157 254.301926,883.423157 
	C254.301926,872.928589 254.301926,863.178467 254.301926,852.976196 
	C260.986450,852.976196 267.416351,852.976196 273.676453,852.976196 
	C274.639069,849.544189 273.708984,848.249329 270.429291,848.371765 
	C265.142883,848.568970 259.843750,848.424744 254.036469,848.424744 
	C254.036469,840.497864 254.036469,833.038696 254.036514,824.592712 
M620.121399,831.511353 
	C620.121399,850.259094 620.121399,869.006775 620.121399,887.830444 
	C622.032043,887.830444 623.305908,887.830444 625.073975,887.830444 
	C625.073975,865.096252 625.073975,842.545044 625.073975,819.450439 
	C630.284485,819.450439 635.012939,819.450439 639.791016,819.450439 
	C639.791016,817.620178 639.791016,816.342407 639.791016,815.163330 
	C628.176025,815.163330 616.792725,815.163330 605.509766,815.163330 
	C604.427795,818.675049 605.727478,819.735413 608.824829,819.601318 
	C612.425720,819.445557 616.038513,819.565002 620.121399,819.565002 
	C620.121399,823.598816 620.121399,827.056641 620.121399,831.511353 
M223.096146,821.607849 
	C223.096146,843.668579 223.096146,865.729370 223.096146,887.794617 
	C225.096420,887.794617 226.362549,887.794617 228.121826,887.794617 
	C228.121826,865.023865 228.121826,842.471191 228.121826,819.565125 
	C233.235840,819.565125 237.862381,819.565125 242.750458,819.565125 
	C242.750458,817.809265 242.750458,816.415039 242.750458,814.990112 
	C231.204391,814.990112 219.915802,814.990112 208.644836,814.990112 
	C207.321243,818.454041 208.459412,819.612549 211.916214,819.639099 
	C215.607178,819.667480 219.293701,820.275330 223.096146,821.607849 
M647.131775,845.499939 
	C647.131775,859.591064 647.131775,873.682190 647.131775,887.807373 
	C649.055725,887.807373 650.326538,887.807373 651.809937,887.807373 
	C651.809937,863.539673 651.809937,839.476379 651.809937,815.307739 
	C650.234741,815.307739 648.866943,815.307739 647.131775,815.307739 
	C647.131775,825.249084 647.131775,834.874512 647.131775,845.499939 
M862.022888,881.932861 
	C862.358276,877.421753 859.641785,878.842773 857.458801,879.248962 
	C857.458801,882.260803 857.458801,885.005859 857.458801,888.082397 
	C859.184631,887.926086 860.553955,887.802063 862.023193,887.669006 
	C862.023193,885.753845 862.023193,884.270386 862.022888,881.932861 
z"/>
<path fill="#FEDD17" opacity="1.000000" stroke="none" 
	d="
M608.999023,367.997711 
	C614.330750,367.997833 619.166931,368.119934 623.992859,367.949951 
	C626.657959,367.856079 627.640442,368.678802 628.131165,371.459167 
	C634.000305,404.712463 640.041321,437.935425 646.039978,471.165802 
	C655.200195,521.910217 664.364014,572.653931 673.523254,623.398499 
	C678.278687,649.744934 683.027832,676.092651 687.833496,702.737061 
	C667.827698,702.737061 648.053589,702.737061 627.695496,702.737061 
	C624.313538,682.760620 620.910034,662.656799 617.463989,642.302002 
	C593.321167,642.302002 569.399780,642.302002 544.893799,642.302002 
	C541.517639,662.268005 538.117920,682.373291 534.675903,702.728760 
	C516.496094,702.728760 498.403259,702.728760 479.913879,702.728760 
	C500.021484,591.259033 520.092957,479.989624 540.294739,367.997711 
	C563.002136,367.997711 585.750671,367.997711 608.999023,367.997711 
M586.436340,461.121216 
	C584.766296,451.244965 583.096252,441.368713 581.426147,431.492462 
	C581.058228,431.529327 580.690247,431.566162 580.322266,431.602997 
	C571.071472,486.395660 561.820618,541.188354 552.540588,596.153931 
	C571.925964,596.153931 590.335449,596.153931 609.260681,596.153931 
	C601.683167,551.143982 594.175781,506.551086 586.436340,461.121216 
z"/>
<path fill="#FFDE17" opacity="1.000000" stroke="none" 
	d="
M729.009460,703.000427 
	C724.529968,703.000427 720.548950,703.000427 716.201965,703.000427 
	C716.201965,591.400146 716.201965,480.049469 716.201965,368.247681 
	C717.454346,368.172333 718.889709,368.011322 720.325134,368.010590 
	C749.478821,367.995941 778.644165,367.522552 807.780273,368.239075 
	C819.122009,368.517975 830.781433,370.212494 841.628967,373.478363 
	C870.445496,382.154114 886.899414,402.746124 889.668579,432.196838 
	C891.874023,455.651947 891.014648,479.426056 890.857605,503.054199 
	C890.808594,510.431366 889.285278,517.981934 887.285156,525.130920 
	C879.034790,554.620972 857.994080,569.641724 829.001221,574.827881 
	C821.018494,576.255859 812.802002,576.627380 804.672546,576.919067 
	C795.033752,577.264893 785.373169,577.000427 775.239136,577.000427 
	C775.239136,618.902954 775.239136,660.617126 775.239136,703.000427 
	C759.679504,703.000427 744.593750,703.000427 729.009460,703.000427 
M831.825073,502.072021 
	C831.827148,482.585083 832.126709,463.092255 831.740601,443.613007 
	C831.409180,426.893494 824.261902,417.754333 809.769653,416.458496 
	C798.416626,415.443329 786.900269,416.254913 775.386536,416.254913 
	C775.386536,453.970886 775.386536,491.482971 775.386536,528.968018 
	C786.429260,528.968018 797.097229,529.285278 807.738464,528.888123 
	C821.193542,528.385864 829.103455,520.835449 831.111084,507.428650 
	C831.332947,505.947479 831.559937,504.467072 831.825073,502.072021 
z"/>
<path fill="#FFDE17" opacity="1.000000" stroke="none" 
	d="
M426.000000,367.999817 
	C447.812866,367.999817 469.125702,367.999817 490.802490,367.999817 
	C490.802490,383.969208 490.802490,399.685577 490.802490,415.859711 
	C470.425385,415.859711 450.011353,415.859711 429.104919,415.859711 
	C429.104919,511.700958 429.104919,607.089355 429.104919,702.738281 
	C409.204407,702.738281 389.799805,702.738281 370.007935,702.738281 
	C370.007935,607.345032 370.007935,512.091003 370.007935,416.216064 
	C349.097534,416.216064 328.556885,416.216064 307.780823,416.216064 
	C307.780823,399.839996 307.780823,384.085876 307.780823,367.999817 
	C347.210571,367.999817 386.355286,367.999817 426.000000,367.999817 
z"/>
<path fill="#F6D617" opacity="1.000000" stroke="none" 
	d="
M947.979980,871.996582 
	C947.979980,852.846375 947.979980,834.195557 947.979980,815.176147 
	C950.213135,815.176147 952.287292,815.176147 955.046875,815.176147 
	C959.918518,835.383118 964.882263,855.972046 969.846008,876.561035 
	C970.169983,876.565918 970.493958,876.570862 970.817993,876.575745 
	C975.673889,856.183716 980.529846,835.791626 985.451721,815.122559 
	C987.783813,815.122559 990.031921,815.122559 992.573853,815.122559 
	C992.573853,839.260803 992.573853,863.318909 992.573853,887.736511 
	C991.153015,887.821777 989.752686,887.905823 987.735779,888.026855 
	C987.735779,868.830750 987.735779,849.956665 987.735779,831.082581 
	C987.274841,831.020203 986.813965,830.957825 986.353027,830.895447 
	C981.846924,849.827515 977.340820,868.759583 972.870544,887.541199 
	C968.920471,888.882812 967.447693,887.608337 966.571472,883.738892 
	C962.937866,867.692566 958.911804,851.735046 955.009399,835.750000 
	C954.596741,834.059448 954.049744,832.401855 952.529541,830.868225 
	C952.529541,849.693298 952.529541,868.518372 952.529541,887.696472 
	C950.845337,887.882141 949.657532,888.013062 947.979980,888.197998 
	C947.979980,882.734863 947.979980,877.615356 947.979980,871.996582 
z"/>
<path fill="#EFD018" opacity="1.000000" stroke="none" 
	d="
M693.036377,854.000000 
	C693.036377,865.472656 693.036377,876.445312 693.036377,887.724487 
	C691.040649,887.724487 689.310730,887.724487 687.296570,887.724487 
	C680.158875,867.699707 672.997864,847.609436 665.836792,827.519165 
	C665.501831,827.575562 665.166870,827.631897 664.831909,827.688293 
	C664.831909,847.506287 664.831909,867.324219 664.831909,887.578308 
	C663.046143,887.754456 661.723633,887.884949 660.183167,888.036865 
	C660.183167,863.542236 660.183167,839.461548 660.183167,815.456116 
	C664.981873,813.753906 667.007385,815.681335 668.526550,820.103333 
	C674.084961,836.283325 680.046753,852.324829 685.868530,868.414185 
	C686.287781,869.572876 686.802368,870.697083 688.421753,871.654968 
	C688.421753,869.949646 688.421631,868.244324 688.421692,866.539001 
	C688.422058,850.719360 688.475647,834.899414 688.377136,819.080383 
	C688.357910,815.998474 688.877502,814.096313 693.036377,815.359802 
	C693.036377,827.930237 693.036377,840.715149 693.036377,854.000000 
z"/>
<path fill="#EFD018" opacity="1.000000" stroke="none" 
	d="
M567.963623,854.000000 
	C567.963623,840.864990 567.963623,828.229980 567.963623,815.630615 
	C572.655090,813.823120 574.847778,815.231201 576.430054,819.862122 
	C582.014954,836.207825 588.062378,852.395508 593.944275,868.639587 
	C594.323730,869.687500 594.786560,870.705200 596.056519,871.648499 
	C596.056519,853.057068 596.056519,834.465576 596.056519,815.448303 
	C597.941101,815.249207 599.263794,815.109436 600.833069,814.943604 
	C600.833069,839.446411 600.833069,863.533325 600.833069,887.590027 
	C597.016602,888.851562 595.138916,887.792236 593.820129,883.915405 
	C588.043213,866.932861 581.908997,850.071838 575.893005,833.170776 
	C575.234131,831.320007 574.502075,829.495300 572.854919,827.615540 
	C572.762695,829.230408 572.592163,830.845215 572.590271,832.460144 
	C572.570435,849.612000 572.528137,866.764038 572.622681,883.915405 
	C572.639587,886.994202 572.128845,888.903809 567.963623,887.642212 
	C567.963623,876.739685 567.963623,865.619812 567.963623,854.000000 
z"/>
<path fill="#F7D717" opacity="1.000000" stroke="none" 
	d="
M804.804321,855.947388 
	C806.460083,860.180115 808.588135,864.067932 809.013367,868.133911 
	C809.677856,874.487610 809.189392,880.961975 809.189392,887.999756 
	C806.235596,889.218262 804.453491,887.249634 804.288208,883.391724 
	C804.074646,878.406311 804.220703,873.406616 804.122925,868.414795 
	C803.943787,859.266602 800.489380,855.792725 791.375366,855.554626 
	C788.754761,855.486145 786.130920,855.544128 783.143494,855.544128 
	C783.143494,866.450806 783.143494,876.887512 783.143494,887.667236 
	C781.413330,887.820923 780.017944,887.944885 778.290405,888.098389 
	C778.290405,863.604797 778.290405,839.391479 778.290405,815.032959 
	C784.542847,815.032959 790.710388,814.687805 796.822205,815.123596 
	C803.848877,815.624573 808.278198,820.301270 808.868896,827.532837 
	C809.247070,832.162781 809.804016,837.059753 808.714539,841.448120 
	C807.645020,845.756409 804.594788,849.573059 802.203918,853.993347 
	C802.224243,854.008179 803.368774,854.845276 804.804321,855.947388 
M797.080383,850.076050 
	C803.868652,846.987793 806.669128,836.430237 803.353638,826.426636 
	C801.147278,819.769409 794.164001,817.630676 783.253235,820.317139 
	C783.253235,830.382629 783.253235,840.467346 783.253235,851.212891 
	C787.770447,850.881470 792.021790,850.569580 797.080383,850.076050 
z"/>
<path fill="#F4D417" opacity="1.000000" stroke="none" 
	d="
M907.974670,864.980591 
	C907.975464,853.155945 907.859558,841.826233 908.010254,830.500000 
	C908.156921,819.472900 914.737549,813.320923 925.372498,813.930969 
	C933.940491,814.422546 939.708618,820.067871 939.908875,829.276062 
	C940.231201,844.095276 940.252808,858.932739 939.902649,873.750671 
	C939.673401,883.455505 933.220581,889.234375 923.851990,889.174500 
	C914.518433,889.114929 908.552856,883.242310 908.014709,873.472046 
	C907.868347,870.814331 907.980896,868.142456 907.974670,864.980591 
M935.132568,844.502869 
	C935.033813,839.176025 935.311279,833.808533 934.740540,828.532776 
	C934.036560,822.025330 929.732483,818.490295 923.698425,818.584778 
	C917.899780,818.675659 913.450500,822.216064 913.281555,828.525635 
	C912.871643,843.833862 912.765808,859.174011 913.308838,874.473877 
	C913.583130,882.201965 920.476807,886.232056 927.643738,883.850342 
	C933.014465,882.065613 934.817505,877.609009 934.944031,872.483643 
	C935.165833,863.493652 935.085999,854.496216 935.132568,844.502869 
z"/>
<path fill="#F4D417" opacity="1.000000" stroke="none" 
	d="
M817.974670,836.044189 
	C817.987793,833.386780 817.869934,831.211060 818.036560,829.057434 
	C818.771973,819.552246 824.710754,813.861572 833.825684,813.822021 
	C843.054077,813.781982 849.550415,819.264099 849.840271,828.726929 
	C850.304199,843.872375 850.303894,859.052429 849.849365,874.198303 
	C849.559143,883.866943 842.898376,889.386292 833.402466,889.149963 
	C824.159302,888.919922 818.205078,882.904358 818.030884,873.020325 
	C817.816650,860.862366 817.976501,848.697754 817.974670,836.044189 
M845.132568,863.469971 
	C845.085693,852.475769 845.199829,841.477600 844.931519,830.488770 
	C844.770874,823.909363 841.669739,819.990356 836.645386,818.919128 
	C828.997314,817.288513 823.307800,821.596741 823.114502,830.046692 
	C822.786987,844.363831 823.012329,858.694031 823.052856,873.018555 
	C823.056091,874.161682 823.329407,875.331482 823.643921,876.441650 
	C825.142822,881.732239 828.487976,884.347717 833.734009,884.414856 
	C838.999878,884.482239 842.869812,882.032776 844.067322,876.819885 
	C844.984436,872.827881 844.817383,868.586853 845.132568,863.469971 
z"/>
<path fill="#F4D417" opacity="1.000000" stroke="none" 
	d="
M504.988525,889.174561 
	C494.478180,888.343323 489.148346,882.936096 489.022430,872.759766 
	C488.847534,858.623108 488.856934,844.481262 489.018219,830.344299 
	C489.135864,820.031128 495.352142,813.792725 504.995605,813.822815 
	C514.683411,813.853027 520.865723,820.056641 520.982117,830.350830 
	C521.141968,844.487854 521.152039,858.629639 520.977417,872.766296 
	C520.852539,882.880249 515.465759,888.336426 504.988525,889.174561 
M516.132568,855.499451 
	C516.079651,847.005005 516.268005,838.500183 515.901001,830.019348 
	C515.580383,822.611206 511.221985,818.483704 504.700562,818.584717 
	C498.411530,818.682190 494.245392,822.728271 494.105927,830.014832 
	C493.831909,844.333069 493.832031,858.663940 494.105713,872.982239 
	C494.244995,880.269714 498.409241,884.316406 504.697632,884.415344 
	C511.219299,884.517944 515.469360,880.388733 515.918640,872.983398 
	C516.251099,867.504456 516.079590,861.994995 516.132568,855.499451 
z"/>
<path fill="#F1D218" opacity="1.000000" stroke="none" 
	d="
M722.739502,887.919250 
	C709.033020,891.899536 700.073059,885.428650 699.988953,871.739258 
	C699.903992,857.908875 699.842407,844.075928 700.014343,830.247070 
	C700.151428,819.221863 706.765381,813.231812 717.523010,813.945618 
	C724.577698,814.413696 729.677246,818.739441 730.917297,825.862610 
	C731.565918,829.588379 731.483032,833.441467 731.754517,837.605408 
	C730.073914,837.804016 728.841553,837.949646 727.437378,838.115540 
	C727.255310,837.292847 727.053772,836.677490 726.990906,836.048218 
	C726.677673,832.912598 726.731689,829.697998 726.038025,826.651978 
	C724.812866,821.271362 721.364563,818.698242 716.098755,818.604004 
	C710.777771,818.508789 706.184204,820.938477 705.982117,826.211609 
	C705.340332,842.958923 705.311401,859.757568 705.886292,876.507568 
	C706.070007,881.860535 710.592224,884.395081 715.834961,884.397888 
	C721.272644,884.400879 725.240234,881.722351 726.025940,876.086060 
	C726.982605,869.224121 726.917725,862.219788 727.320984,854.791992 
	C723.730408,854.791992 720.815186,854.791992 717.446960,854.791992 
	C717.257446,853.067322 717.112488,851.747681 716.939453,850.172852 
	C721.813904,850.172852 726.274109,850.172852 731.986755,850.172852 
	C731.476929,859.766174 731.551270,869.366760 730.151611,878.747375 
	C729.660706,882.037415 725.548645,884.787170 722.739502,887.919250 
z"/>
<path fill="#F5D517" opacity="1.000000" stroke="none" 
	d="
M375.566742,834.358643 
	C377.024597,827.797668 378.360016,821.638672 379.742493,815.262817 
	C382.247803,815.262817 384.503601,815.262817 387.193146,815.262817 
	C392.545197,839.261475 397.916077,863.344543 403.365692,887.780640 
	C401.330292,887.780640 399.908600,887.780640 398.297516,887.780640 
	C397.049347,882.579956 395.823639,877.472900 394.565399,872.230225 
	C387.200012,872.230225 380.072510,872.230225 372.342560,872.230225 
	C371.384033,876.114502 370.150269,880.188965 369.426392,884.352112 
	C368.887054,887.453796 367.718719,888.838562 363.967834,887.530212 
	C367.782166,869.991760 371.613251,852.376221 375.566742,834.358643 
M380.648926,867.822815 
	C384.871277,867.822815 389.093597,867.822815 393.880829,867.822815 
	C390.360443,852.320862 387.054016,837.761108 383.747589,823.201294 
	C383.461609,823.196777 383.175629,823.192261 382.889648,823.187744 
	C379.610046,837.945679 376.330414,852.703674 372.970551,867.822815 
	C375.726929,867.822815 377.715210,867.822815 380.648926,867.822815 
z"/>
<path fill="#F7D717" opacity="1.000000" stroke="none" 
	d="
M329.017120,823.072388 
	C329.017120,831.850647 329.017120,840.139954 329.017120,848.704224 
	C336.759613,848.704224 344.140839,848.704224 351.852539,848.704224 
	C351.852539,837.599548 351.852539,826.670288 351.852539,815.381287 
	C353.532837,815.200806 354.928864,815.050903 356.683899,814.862366 
	C356.683899,839.179932 356.683899,863.235596 356.683899,887.688721 
	C355.434998,887.810791 354.039185,887.947266 352.095184,888.137329 
	C352.095184,876.623108 352.095184,865.387390 352.095184,853.851074 
	C344.331055,853.851074 337.082184,853.851074 329.283813,853.851074 
	C329.283813,864.972473 329.283813,876.179382 329.283813,887.692200 
	C327.380676,887.692200 326.019135,887.692200 324.392029,887.692200 
	C324.392029,863.650635 324.392029,839.737366 324.392029,815.390686 
	C325.698212,815.238831 327.070953,815.079224 329.017120,814.852966 
	C329.017120,817.676147 329.017120,820.129822 329.017120,823.072388 
z"/>
<path fill="#F0D118" opacity="1.000000" stroke="none" 
	d="
M554.427734,838.999756 
	C554.427795,830.855469 554.427795,823.211121 554.427795,815.298950 
	C556.051208,815.179382 557.294922,815.087769 558.566040,814.994141 
	C558.751587,815.686035 558.987671,816.156677 558.988342,816.627686 
	C559.015747,835.292725 559.122314,853.958557 558.991516,872.622620 
	C558.917297,883.213257 552.912720,889.288635 543.174622,889.157166 
	C534.525940,889.040283 528.341187,883.599915 528.157654,874.422058 
	C527.764832,854.791870 528.037354,835.148376 528.037354,815.246399 
	C529.686890,815.246399 531.057068,815.246399 532.881836,815.246399 
	C532.881836,824.634155 532.862427,833.765442 532.887085,842.896545 
	C532.914001,852.894592 532.784851,862.898621 533.096130,872.888489 
	C533.327637,880.315125 537.319458,884.380127 543.567017,884.404114 
	C549.878662,884.428345 553.770142,880.587402 554.046204,872.979370 
	C554.450745,861.829590 554.326538,850.660583 554.427734,838.999756 
z"/>
<path fill="#F2D317" opacity="1.000000" stroke="none" 
	d="
M303.483795,884.100769 
	C309.576172,882.609131 311.234924,878.160156 311.716309,873.129211 
	C312.046631,869.677063 311.779633,866.167725 311.779633,862.335938 
	C313.505066,862.335938 314.829865,862.335938 316.278503,862.335938 
	C316.278503,866.702576 316.646545,870.878113 316.204559,874.966064 
	C315.171478,884.521545 309.553894,889.324280 300.229675,889.140930 
	C291.524780,888.969604 285.423920,883.598389 285.165527,874.458679 
	C284.732635,859.147766 284.683289,843.803528 285.190247,828.497070 
	C285.497284,819.226501 291.561768,814.006348 300.299683,813.853027 
	C309.524384,813.691162 315.125732,818.566528 316.227417,828.119751 
	C316.621948,831.540894 316.290649,835.045776 316.290649,838.763428 
	C314.887939,838.763428 313.649933,838.763428 312.343353,838.763428 
	C312.209595,838.202759 312.038147,837.738525 311.995026,837.262695 
	C311.665558,833.628174 311.744659,829.905884 310.958282,826.375427 
	C309.803253,821.189941 306.009918,818.520874 300.793610,818.612854 
	C295.740845,818.701904 291.173798,821.000366 291.011719,826.037354 
	C290.467773,842.942993 290.295227,859.896179 291.010406,876.787537 
	C291.262665,882.745239 295.797119,884.590637 303.483795,884.100769 
z"/>
<path fill="#F2D317" opacity="1.000000" stroke="none" 
	d="
M437.077423,876.534546 
	C437.553802,871.672485 437.941437,867.216370 438.363556,862.363525 
	C439.468201,862.363525 440.792419,862.363525 442.288147,862.363525 
	C442.288147,866.639648 442.651276,870.812195 442.215302,874.899475 
	C441.195038,884.464417 435.583282,889.306641 426.296722,889.146729 
	C417.580872,888.996643 411.443665,883.652649 411.174988,874.525330 
	C410.724274,859.215210 410.693085,843.871094 411.179962,828.563293 
	C411.474915,819.290405 417.512329,814.033447 426.233337,813.858826 
	C435.493195,813.673523 441.099365,818.509216 442.216888,828.054260 
	C442.617493,831.475952 442.281158,834.983948 442.281158,838.742249 
	C440.935364,838.818909 439.698975,838.889343 438.425629,838.961914 
	C438.239471,838.262024 438.043274,837.801880 438.003052,837.328613 
	C437.708099,833.856567 437.796326,830.308472 437.091339,826.924438 
	C435.923645,821.319031 432.288971,818.605103 426.859436,818.597534 
	C421.480377,818.590027 417.963837,821.393677 416.530243,826.919434 
	C416.240601,828.035828 416.042419,829.212219 416.039795,830.361450 
	C416.007385,844.517517 415.790192,858.678772 416.105133,872.827881 
	C416.295258,881.369568 421.802673,885.626648 429.502777,884.108093 
	C433.558319,883.308289 435.819763,880.714661 437.077423,876.534546 
z"/>
<path fill="#F2D317" opacity="1.000000" stroke="none" 
	d="
M457.890381,821.973877 
	C456.786530,824.772827 455.206268,827.235840 455.164520,829.724609 
	C454.921509,844.210999 454.839905,858.707458 455.121643,873.192322 
	C455.259521,880.279907 459.254761,884.150269 465.391327,884.391113 
	C470.890808,884.606873 474.829803,882.032166 475.965332,876.560181 
	C476.901825,872.047424 476.944122,867.349182 477.419250,862.347900 
	C478.488098,862.347900 479.813538,862.347900 481.211243,862.347900 
	C481.211243,866.841370 481.609528,871.186340 481.128357,875.431641 
	C480.126709,884.268921 474.766754,888.983459 466.252686,889.148071 
	C457.402527,889.319214 450.886902,884.824829 450.455719,875.959961 
	C449.671906,859.846863 449.652435,843.644897 450.391418,827.529419 
	C450.816040,818.269165 457.241211,813.668213 466.282776,813.852905 
	C474.888184,814.028809 480.172852,818.916077 481.225525,828.107605 
	C481.617462,831.530029 481.288910,835.035034 481.288910,838.758484 
	C479.895630,838.758484 478.661285,838.758484 477.347198,838.758484 
	C477.214478,838.212219 477.020447,837.746582 476.999756,837.273438 
	C476.883331,834.612305 477.046143,831.916016 476.677948,829.292908 
	C475.217590,818.888794 466.660889,815.407471 457.890381,821.973877 
z"/>
<path fill="#F2D317" opacity="1.000000" stroke="none" 
	d="
M868.971924,839.012878 
	C869.324524,833.727661 869.108398,828.809753 870.164673,824.182190 
	C871.704102,817.437805 876.968994,813.998230 884.250854,813.857239 
	C891.980957,813.707520 897.263855,816.820862 899.132996,823.733337 
	C900.404358,828.434570 900.434570,833.471436 901.060242,838.696594 
	C898.936401,838.819031 897.700439,838.890259 896.427795,838.963562 
	C896.240967,838.265076 896.043518,837.805420 896.003418,837.332520 
	C895.708984,833.862244 895.797363,830.316162 895.093994,826.933594 
	C893.928650,821.329285 890.300171,818.612915 884.876709,818.597778 
	C879.491943,818.582764 875.981018,821.371399 874.538208,826.895691 
	C874.246887,828.011047 874.044067,829.186340 874.041260,830.334595 
	C874.007263,844.483093 873.841553,858.634766 874.090454,872.778931 
	C874.217957,880.028137 877.907166,883.912598 883.967896,884.353943 
	C889.691040,884.770691 893.798401,882.166748 894.979248,876.496460 
	C895.917725,871.989807 895.949158,867.294250 896.406494,862.435486 
	C899.160645,861.314087 900.802368,861.854309 900.584473,865.521118 
	C900.426819,868.176025 900.672241,870.858398 900.456909,873.505737 
	C899.587769,884.190979 893.858337,889.480591 883.727173,889.098938 
	C874.666260,888.757629 869.116455,882.621033 869.001892,872.473511 
	C868.877930,861.486938 868.972595,850.497925 868.971924,839.012878 
z"/>
<path fill="#F2D317" opacity="1.000000" stroke="none" 
	d="
M743.050354,888.011597 
	C741.770874,887.108521 740.240356,886.201843 740.235168,885.286438 
	C740.103394,861.990295 740.131348,838.693176 740.131348,815.192871 
	C746.871643,815.192871 753.369751,814.669617 759.742798,815.338074 
	C766.281860,816.023926 770.421509,821.367920 770.905640,828.753052 
	C771.242493,833.892334 771.240967,839.086121 770.931641,844.227966 
	C770.431274,852.544739 765.077148,857.605957 756.696716,857.984192 
	C753.052734,858.148743 749.395264,858.011780 745.028076,858.011780 
	C745.028076,866.626587 745.102661,875.043396 744.959656,883.456543 
	C744.933777,884.980164 744.015991,886.488586 743.050354,888.011597 
M758.660583,852.893372 
	C763.285278,851.652588 765.624756,848.391113 765.872192,843.854370 
	C766.142822,838.892395 766.199402,833.880127 765.808655,828.932373 
	C765.461731,824.539001 763.446533,820.650391 758.551208,820.090393 
	C754.214355,819.594238 749.775818,819.986328 745.270020,819.986328 
	C745.270020,831.152466 745.270020,842.045349 745.270020,853.021606 
	C749.610107,853.021606 753.707703,853.021606 758.660583,852.893372 
z"/>
<path fill="#EFD018" opacity="1.000000" stroke="none" 
	d="
M254.036499,825.086060 
	C254.036469,833.038696 254.036469,840.497864 254.036469,848.424744 
	C259.843750,848.424744 265.142883,848.568970 270.429291,848.371765 
	C273.708984,848.249329 274.639069,849.544189 273.676453,852.976196 
	C267.416351,852.976196 260.986450,852.976196 254.301926,852.976196 
	C254.301926,863.178467 254.301926,872.928589 254.301926,883.423157 
	C261.110748,883.423157 267.863800,883.542786 274.609406,883.371521 
	C277.874481,883.288696 278.884308,884.487549 277.804962,887.869080 
	C268.561310,887.869080 259.162384,887.869080 249.437256,887.869080 
	C249.437256,863.750488 249.437256,839.680725 249.437256,815.196594 
	C258.731750,815.196594 268.118774,815.196594 277.851044,815.196594 
	C277.851044,816.417847 277.851044,817.775085 277.851044,819.491638 
	C270.031860,819.491638 262.407654,819.491638 254.036514,819.491638 
	C254.036514,821.425659 254.036514,823.009155 254.036499,825.086060 
z"/>
<path fill="#F1D218" opacity="1.000000" stroke="none" 
	d="
M620.121399,831.012939 
	C620.121399,827.056641 620.121399,823.598816 620.121399,819.565002 
	C616.038513,819.565002 612.425720,819.445557 608.824829,819.601318 
	C605.727478,819.735413 604.427795,818.675049 605.509766,815.163330 
	C616.792725,815.163330 628.176025,815.163330 639.791016,815.163330 
	C639.791016,816.342407 639.791016,817.620178 639.791016,819.450439 
	C635.012939,819.450439 630.284485,819.450439 625.073975,819.450439 
	C625.073975,842.545044 625.073975,865.096252 625.073975,887.830444 
	C623.305908,887.830444 622.032043,887.830444 620.121399,887.830444 
	C620.121399,869.006775 620.121399,850.259094 620.121399,831.012939 
z"/>
<path fill="#F1D218" opacity="1.000000" stroke="none" 
	d="
M223.039154,821.119019 
	C219.293701,820.275330 215.607178,819.667480 211.916214,819.639099 
	C208.459412,819.612549 207.321243,818.454041 208.644836,814.990112 
	C219.915802,814.990112 231.204391,814.990112 242.750458,814.990112 
	C242.750458,816.415039 242.750458,817.809265 242.750458,819.565125 
	C237.862381,819.565125 233.235840,819.565125 228.121826,819.565125 
	C228.121826,842.471191 228.121826,865.023865 228.121826,887.794617 
	C226.362549,887.794617 225.096420,887.794617 223.096146,887.794617 
	C223.096146,865.729370 223.096146,843.668579 223.039154,821.119019 
z"/>
<path fill="#F5D517" opacity="1.000000" stroke="none" 
	d="
M647.131775,844.999878 
	C647.131775,834.874512 647.131775,825.249084 647.131775,815.307739 
	C648.866943,815.307739 650.234741,815.307739 651.809937,815.307739 
	C651.809937,839.476379 651.809937,863.539673 651.809937,887.807373 
	C650.326538,887.807373 649.055725,887.807373 647.131775,887.807373 
	C647.131775,873.682190 647.131775,859.591064 647.131775,844.999878 
z"/>
<path fill="#F5D517" opacity="1.000000" stroke="none" 
	d="
M862.023071,882.359863 
	C862.023193,884.270386 862.023193,885.753845 862.023193,887.669006 
	C860.553955,887.802063 859.184631,887.926086 857.458801,888.082397 
	C857.458801,885.005859 857.458801,882.260803 857.458801,879.248962 
	C859.641785,878.842773 862.358276,877.421753 862.023071,882.359863 
z"/>
<path fill="#242020" opacity="1.000000" stroke="none" 
	d="
M586.552368,461.539673 
	C594.175781,506.551086 601.683167,551.143982 609.260681,596.153931 
	C590.335449,596.153931 571.925964,596.153931 552.540588,596.153931 
	C561.820618,541.188354 571.071472,486.395660 580.322266,431.602997 
	C580.690247,431.566162 581.058228,431.529327 581.426147,431.492462 
	C583.096252,441.368713 584.766296,451.244965 586.552368,461.539673 
z"/>
<path fill="#231F20" opacity="1.000000" stroke="none" 
	d="
M831.804810,502.529175 
	C831.559937,504.467072 831.332947,505.947479 831.111084,507.428650 
	C829.103455,520.835449 821.193542,528.385864 807.738464,528.888123 
	C797.097229,529.285278 786.429260,528.968018 775.386536,528.968018 
	C775.386536,491.482971 775.386536,453.970886 775.386536,416.254913 
	C786.900269,416.254913 798.416626,415.443329 809.769653,416.458496 
	C824.261902,417.754333 831.409180,426.893494 831.740601,443.613007 
	C832.126709,463.092255 831.827148,482.585083 831.804810,502.529175 
z"/>
<path fill="#242020" opacity="1.000000" stroke="none" 
	d="
M796.676758,850.166870 
	C792.021790,850.569580 787.770447,850.881470 783.253235,851.212891 
	C783.253235,840.467346 783.253235,830.382629 783.253235,820.317139 
	C794.164001,817.630676 801.147278,819.769409 803.353638,826.426636 
	C806.669128,836.430237 803.868652,846.987793 796.676758,850.166870 
z"/>
<path fill="#242020" opacity="1.000000" stroke="none" 
	d="
M935.132568,845.002380 
	C935.085999,854.496216 935.165833,863.493652 934.944031,872.483643 
	C934.817505,877.609009 933.014465,882.065613 927.643738,883.850342 
	C920.476807,886.232056 913.583130,882.201965 913.308838,874.473877 
	C912.765808,859.174011 912.871643,843.833862 913.281555,828.525635 
	C913.450500,822.216064 917.899780,818.675659 923.698425,818.584778 
	C929.732483,818.490295 934.036560,822.025330 934.740540,828.532776 
	C935.311279,833.808533 935.033813,839.176025 935.132568,845.002380 
z"/>
<path fill="#242020" opacity="1.000000" stroke="none" 
	d="
M845.132568,863.963257 
	C844.817383,868.586853 844.984436,872.827881 844.067322,876.819885 
	C842.869812,882.032776 838.999878,884.482239 833.734009,884.414856 
	C828.487976,884.347717 825.142822,881.732239 823.643921,876.441650 
	C823.329407,875.331482 823.056091,874.161682 823.052856,873.018555 
	C823.012329,858.694031 822.786987,844.363831 823.114502,830.046692 
	C823.307800,821.596741 828.997314,817.288513 836.645386,818.919128 
	C841.669739,819.990356 844.770874,823.909363 844.931519,830.488770 
	C845.199829,841.477600 845.085693,852.475769 845.132568,863.963257 
z"/>
<path fill="#242020" opacity="1.000000" stroke="none" 
	d="
M516.132568,855.999268 
	C516.079590,861.994995 516.251099,867.504456 515.918640,872.983398 
	C515.469360,880.388733 511.219299,884.517944 504.697632,884.415344 
	C498.409241,884.316406 494.244995,880.269714 494.105713,872.982239 
	C493.832031,858.663940 493.831909,844.333069 494.105927,830.014832 
	C494.245392,822.728271 498.411530,818.682190 504.700562,818.584717 
	C511.221985,818.483704 515.580383,822.611206 515.901001,830.019348 
	C516.268005,838.500183 516.079651,847.005005 516.132568,855.999268 
z"/>
<path fill="#2A2520" opacity="1.000000" stroke="none" 
	d="
M380.176208,867.822815 
	C377.715210,867.822815 375.726929,867.822815 372.970551,867.822815 
	C376.330414,852.703674 379.610046,837.945679 382.889648,823.187744 
	C383.175629,823.192261 383.461609,823.196777 383.747589,823.201294 
	C387.054016,837.761108 390.360443,852.320862 393.880829,867.822815 
	C389.093597,867.822815 384.871277,867.822815 380.176208,867.822815 
z"/>
<path fill="#242020" opacity="1.000000" stroke="none" 
	d="
M758.232910,852.957520 
	C753.707703,853.021606 749.610107,853.021606 745.270020,853.021606 
	C745.270020,842.045349 745.270020,831.152466 745.270020,819.986328 
	C749.775818,819.986328 754.214355,819.594238 758.551208,820.090393 
	C763.446533,820.650391 765.461731,824.539001 765.808655,828.932373 
	C766.199402,833.880127 766.142822,838.892395 765.872192,843.854370 
	C765.624756,848.391113 763.285278,851.652588 758.232910,852.957520 
z"/>
</svg>